<svg width="33" height="40" viewBox="0 0 33 40" fill="none" xmlns="http://www.w3.org/2000/svg">
<path d="M12.9375 8.18738C19.4959 8.18738 24.8125 13.504 24.8125 20.0624V20.0624C24.8125 26.6208 19.4959 31.9374 12.9375 31.9374L5.02083 31.9374C2.83471 31.9374 1.0625 30.1652 1.0625 27.979L1.0625 12.1457C1.0625 9.95959 2.83471 8.18738 5.02083 8.18738L12.9375 8.18738Z" stroke="#413E60"/>
<path fill-rule="evenodd" clip-rule="evenodd" d="M12.9375 1.06238C23.4309 1.06238 31.9375 9.56897 31.9375 20.0624C31.9375 30.5558 23.4309 39.0624 12.9375 39.0624C11.6258 39.0624 10.5625 37.9991 10.5625 36.6874C10.5625 35.3757 11.6258 34.3124 12.9375 34.3124C20.8076 34.3124 27.1875 27.9324 27.1875 20.0624C27.1875 12.1923 20.8076 5.81238 12.9375 5.81238C11.6258 5.81238 10.5625 4.74905 10.5625 3.43738C10.5625 2.1257 11.6258 1.06238 12.9375 1.06238Z" stroke="#413E60" stroke-linecap="round"/>
</svg>

